<svg width="46" height="26" viewBox="0 0 46 26" fill="none" xmlns="http://www.w3.org/2000/svg">
<path fill-rule="evenodd" clip-rule="evenodd" d="M27.8059 0.669363C28.2973 0.800915 28.6474 1.23594 28.6717 1.74523L29.6023 21.204L32.0658 19.9776C32.514 19.7545 33.0541 19.8421 33.4092 20.1957L35.8642 22.64L39.1796 20.9895C39.5071 20.8264 39.8917 20.8264 40.2192 20.9895L43.7644 22.7544L48.8761 21.5177C48.5891 20.9382 49.4542 21.2299 48.8761 21.5177C49.1632 22.0973 49.4542 21.2299 48.8761 21.5177L44.2842 25.112C43.9567 25.275 43.5721 25.275 43.2446 25.112L39.6994 23.347L36.1542 25.112C35.706 25.3351 35.1659 25.2474 34.8108 24.8939L32.3559 22.4495L29.0404 24.1001C28.6871 24.276 28.269 24.2613 27.9288 24.061C27.5886 23.8607 27.3722 23.5019 27.3533 23.1068L26.5124 5.52515L21.3746 13.5641C21.1568 13.9049 20.7789 14.1088 20.3752 14.1035C19.9715 14.0982 19.5991 13.8843 19.3903 13.5378L14.9455 6.16168L12.3985 22.2228C12.3402 22.591 12.1105 22.9093 11.78 23.0802C11.4495 23.251 11.0576 23.254 10.7245 23.0882L5.37659 20.4258L0.353655 23.9898C-0.104305 24.4458 0.252608 23.8763 0.252608 23.8763C-0.0958691 23.5307 -0.104305 24.4458 0.353655 23.9898L4.32327 18.1719C4.67831 17.8184 5.21845 17.7307 5.66663 17.9538L10.3398 20.2804L13.1389 2.62926C13.2159 2.14344 13.5875 1.7576 14.0691 1.6633C14.5506 1.569 15.0397 1.78632 15.2934 2.20737L20.4198 10.7145L26.5203 1.16925C26.7947 0.739939 27.3145 0.537811 27.8059 0.669363Z" fill="white"/>
</svg>
