<svg width="135" height="34" viewBox="0 0 135 34" fill="none" xmlns="http://www.w3.org/2000/svg">
<rect width="135" height="34" rx="5" fill="#29B712"/>
<g clip-path="url(#clip0_1_134)">
<path d="M21.5984 8.10396C21.5159 8.01703 21.4027 7.96484 21.2854 7.96484H14.2637C12.968 7.96484 11.8984 9.03011 11.8984 10.3257V23.6039C11.8984 24.8996 12.968 25.9649 14.2637 25.9649H23.794C25.0897 25.9649 26.1593 24.8996 26.1593 23.6039V13.0604C26.1593 12.9474 26.1071 12.8388 26.0332 12.7561L21.5984 8.10396ZM21.7245 9.49964L24.6941 12.617H22.7637C22.1898 12.617 21.7245 12.1561 21.7245 11.5822V9.49964ZM23.794 25.0953H14.2637C13.4507 25.0953 12.768 24.4214 12.768 23.6039V10.3257C12.768 9.51268 13.4463 8.83441 14.2637 8.83441H20.8549V11.5822C20.8549 12.6387 21.7072 13.4866 22.7637 13.4866H25.2897V23.6039C25.2897 24.4214 24.6114 25.0953 23.794 25.0953Z" fill="white"/>
<path d="M22.6071 22.0953H15.4506C15.2115 22.0953 15.0158 22.2909 15.0158 22.5301C15.0158 22.7692 15.2115 22.9649 15.4506 22.9649H22.6115C22.8506 22.9649 23.0463 22.7692 23.0463 22.5301C23.0463 22.2909 22.8506 22.0953 22.6071 22.0953Z" fill="white"/>
<path d="M18.7115 20.5345C18.7942 20.6214 18.9072 20.6736 19.0289 20.6736C19.1507 20.6736 19.2637 20.6214 19.3462 20.5345L21.8941 17.7997C22.0593 17.6257 22.0463 17.3474 21.8724 17.1866C21.6984 17.0214 21.4202 17.0343 21.2594 17.2083L19.4637 19.1344V14.3866C19.4637 14.1474 19.268 13.9518 19.0289 13.9518C18.7898 13.9518 18.5941 14.1474 18.5941 14.3866V19.1344L16.8028 17.2083C16.6376 17.0345 16.3636 17.0214 16.1897 17.1866C16.0159 17.3518 16.0028 17.6258 16.168 17.7997L18.7115 20.5345Z" fill="white"/>
</g>
<path d="M38.42 21V20.292L39.896 20.232H40.088V21H38.42ZM39.56 21C39.568 20.592 39.572 20.184 39.572 19.776C39.572 19.36 39.572 18.944 39.572 18.528C39.572 18.112 39.572 17.688 39.572 17.256V16.68C39.572 16.272 39.572 15.864 39.572 15.456C39.572 15.048 39.572 14.64 39.572 14.232C39.572 13.816 39.568 13.404 39.56 12.996H41.036C41.036 13.404 41.032 13.812 41.024 14.22C41.024 14.628 41.024 15.036 41.024 15.444C41.024 15.852 41.024 16.264 41.024 16.68V17.256C41.024 17.68 41.024 18.104 41.024 18.528C41.024 18.944 41.024 19.356 41.024 19.764C41.032 20.172 41.036 20.584 41.036 21H39.56ZM40.508 21V20.292H41.972C42.612 20.292 43.152 20.16 43.592 19.896C44.032 19.624 44.364 19.24 44.588 18.744C44.82 18.248 44.936 17.652 44.936 16.956C44.936 15.9 44.688 15.096 44.192 14.544C43.696 13.984 43.004 13.704 42.116 13.704H40.508V12.996H42.248C43.096 12.996 43.836 13.144 44.468 13.44C45.108 13.728 45.604 14.164 45.956 14.748C46.308 15.332 46.484 16.056 46.484 16.92C46.484 17.784 46.3 18.52 45.932 19.128C45.572 19.736 45.06 20.2 44.396 20.52C43.732 20.84 42.952 21 42.056 21H40.508ZM38.42 13.704V12.996H40.088V13.764H39.896L38.42 13.704ZM50.5992 21.156C50.0632 21.156 49.5632 21.036 49.0992 20.796C48.6432 20.556 48.2712 20.204 47.9832 19.74C47.7032 19.268 47.5632 18.7 47.5632 18.036C47.5632 17.356 47.7032 16.78 47.9832 16.308C48.2712 15.836 48.6432 15.48 49.0992 15.24C49.5632 14.992 50.0632 14.868 50.5992 14.868C51.1352 14.868 51.6312 14.988 52.0872 15.228C52.5512 15.468 52.9232 15.82 53.2032 16.284C53.4912 16.748 53.6352 17.316 53.6352 17.988C53.6352 18.652 53.4952 19.224 53.2152 19.704C52.9352 20.176 52.5632 20.536 52.0992 20.784C51.6352 21.032 51.1352 21.156 50.5992 21.156ZM50.5992 20.472C50.9432 20.472 51.2352 20.384 51.4752 20.208C51.7152 20.032 51.8992 19.764 52.0272 19.404C52.1552 19.044 52.2192 18.588 52.2192 18.036C52.2192 17.468 52.1552 17.004 52.0272 16.644C51.8992 16.276 51.7152 16.004 51.4752 15.828C51.2352 15.644 50.9432 15.552 50.5992 15.552C50.2552 15.552 49.9632 15.64 49.7232 15.816C49.4832 15.992 49.2992 16.264 49.1712 16.632C49.0512 16.992 48.9912 17.448 48.9912 18C48.9912 18.56 49.0512 19.024 49.1712 19.392C49.2992 19.752 49.4832 20.024 49.7232 20.208C49.9632 20.384 50.2552 20.472 50.5992 20.472ZM56.789 21.024L54.797 15.012H56.261L57.701 20.064L58.001 18.516L59.177 15.012H60.053L61.589 20.052H61.601L61.901 18.42L62.921 15.012H63.833L61.709 21.024H60.689L59.285 16.452H59.297L59.057 17.7L57.881 21.024H56.789ZM54.305 15.648V15.012H57.365V15.648L56.045 15.792H55.505L54.305 15.648ZM58.109 15.648V15.012H61.121V15.648L60.029 15.756H59.273L58.109 15.648ZM61.889 15.648V15.012H64.325V15.648L63.353 15.792H62.969L61.889 15.648ZM65.0113 21V20.34L66.3553 20.268H66.8473L68.1193 20.34V21H65.0113ZM65.9353 21C65.9353 20.744 65.9353 20.468 65.9353 20.172C65.9353 19.876 65.9353 19.576 65.9353 19.272C65.9433 18.968 65.9473 18.676 65.9473 18.396V17.748C65.9473 17.556 65.9433 17.376 65.9353 17.208C65.9353 17.032 65.9353 16.86 65.9353 16.692C65.9353 16.524 65.9353 16.352 65.9353 16.176L64.9633 16.14V15.564L66.6073 14.964L67.0153 15L67.1833 16.272H67.2553V18.396C67.2553 18.676 67.2553 18.968 67.2553 19.272C67.2633 19.576 67.2673 19.876 67.2673 20.172C67.2673 20.468 67.2673 20.744 67.2673 21H65.9353ZM69.0313 21V20.34L70.3153 20.268H70.8193L72.1273 20.34V21H69.0313ZM69.8953 21C69.8953 20.744 69.8953 20.468 69.8953 20.172C69.9033 19.876 69.9073 19.576 69.9073 19.272C69.9073 18.968 69.9073 18.676 69.9073 18.396V17.184C69.9073 16.728 69.8273 16.404 69.6673 16.212C69.5073 16.02 69.2513 15.924 68.8993 15.924C68.6993 15.924 68.4953 15.956 68.2873 16.02C68.0873 16.076 67.8833 16.164 67.6753 16.284C67.4673 16.404 67.2593 16.548 67.0513 16.716L67.0033 16.116H67.3753C67.5353 15.884 67.7153 15.676 67.9153 15.492C68.1233 15.3 68.3553 15.148 68.6113 15.036C68.8673 14.924 69.1473 14.868 69.4513 14.868C70.0353 14.868 70.4753 15.044 70.7713 15.396C71.0753 15.74 71.2273 16.256 71.2273 16.944V18.396C71.2273 18.676 71.2273 18.968 71.2273 19.272C71.2273 19.576 71.2273 19.876 71.2273 20.172C71.2273 20.468 71.2313 20.744 71.2393 21H69.8953ZM72.9208 21V20.34L74.2648 20.268H74.7688L76.1248 20.34V21H72.9208ZM73.8568 21C73.8568 20.712 73.8568 20.424 73.8568 20.136C73.8568 19.848 73.8568 19.56 73.8568 19.272C73.8648 18.976 73.8688 18.684 73.8688 18.396V13.38L72.8608 13.176V12.624L74.7808 12.24L75.2008 12.276L75.1768 13.776V18.396C75.1768 18.684 75.1768 18.976 75.1768 19.272C75.1848 19.56 75.1888 19.848 75.1888 20.136C75.1888 20.424 75.1888 20.712 75.1888 21H73.8568ZM80.1421 21.156C79.6061 21.156 79.1061 21.036 78.6421 20.796C78.1861 20.556 77.8141 20.204 77.5261 19.74C77.2461 19.268 77.1061 18.7 77.1061 18.036C77.1061 17.356 77.2461 16.78 77.5261 16.308C77.8141 15.836 78.1861 15.48 78.6421 15.24C79.1061 14.992 79.6061 14.868 80.1421 14.868C80.6781 14.868 81.1741 14.988 81.6301 15.228C82.0941 15.468 82.4661 15.82 82.7461 16.284C83.0341 16.748 83.1781 17.316 83.1781 17.988C83.1781 18.652 83.0381 19.224 82.7581 19.704C82.4781 20.176 82.1061 20.536 81.6421 20.784C81.1781 21.032 80.6781 21.156 80.1421 21.156ZM80.1421 20.472C80.4861 20.472 80.7781 20.384 81.0181 20.208C81.2581 20.032 81.4421 19.764 81.5701 19.404C81.6981 19.044 81.7621 18.588 81.7621 18.036C81.7621 17.468 81.6981 17.004 81.5701 16.644C81.4421 16.276 81.2581 16.004 81.0181 15.828C80.7781 15.644 80.4861 15.552 80.1421 15.552C79.7981 15.552 79.5061 15.64 79.2661 15.816C79.0261 15.992 78.8421 16.264 78.7141 16.632C78.5941 16.992 78.5341 17.448 78.5341 18C78.5341 18.56 78.5941 19.024 78.7141 19.392C78.8421 19.752 79.0261 20.024 79.2661 20.208C79.5061 20.384 79.7981 20.472 80.1421 20.472ZM85.8874 21.18C85.4234 21.18 85.0274 21.044 84.6994 20.772C84.3794 20.5 84.2194 20.108 84.2194 19.596C84.2194 19.284 84.2874 19.012 84.4234 18.78C84.5594 18.54 84.7754 18.332 85.0714 18.156C85.3754 17.98 85.7714 17.828 86.2594 17.7C86.4914 17.628 86.7194 17.564 86.9434 17.508C87.1674 17.452 87.3914 17.392 87.6154 17.328C87.8474 17.264 88.0794 17.204 88.3114 17.148V17.664C88.0314 17.752 87.7474 17.84 87.4594 17.928C87.1794 18.016 86.8954 18.104 86.6074 18.192C86.3194 18.28 86.0954 18.38 85.9354 18.492C85.7754 18.604 85.6634 18.732 85.5994 18.876C85.5434 19.012 85.5154 19.164 85.5154 19.332C85.5154 19.612 85.6034 19.836 85.7794 20.004C85.9634 20.172 86.2074 20.256 86.5114 20.256C86.7114 20.256 86.8914 20.22 87.0514 20.148C87.2114 20.076 87.3754 19.972 87.5434 19.836C87.7194 19.7 87.9114 19.54 88.1194 19.356L88.1674 20.052H87.6994C87.5714 20.244 87.4274 20.428 87.2674 20.604C87.1154 20.772 86.9274 20.908 86.7034 21.012C86.4874 21.124 86.2154 21.18 85.8874 21.18ZM89.1514 21.144C88.7834 21.144 88.4874 21.032 88.2634 20.808C88.0394 20.584 87.9154 20.252 87.8914 19.812L87.8434 19.788V16.932C87.8434 16.58 87.7994 16.3 87.7114 16.092C87.6234 15.884 87.4834 15.736 87.2914 15.648C87.1074 15.56 86.8754 15.516 86.5954 15.516C86.3794 15.516 86.1794 15.536 85.9954 15.576C85.8114 15.608 85.6274 15.664 85.4434 15.744L85.9474 15.204L85.8154 16.272C85.7834 16.568 85.7034 16.784 85.5754 16.92C85.4474 17.048 85.2794 17.112 85.0714 17.112C84.8634 17.112 84.7034 17.06 84.5914 16.956C84.4794 16.844 84.4114 16.712 84.3874 16.56C84.4754 16.048 84.7474 15.64 85.2034 15.336C85.6594 15.024 86.2474 14.868 86.9674 14.868C87.4154 14.868 87.8034 14.936 88.1314 15.072C88.4594 15.208 88.7114 15.432 88.8874 15.744C89.0714 16.048 89.1634 16.456 89.1634 16.968V19.656C89.1634 19.872 89.2034 20.032 89.2834 20.136C89.3714 20.232 89.4914 20.28 89.6434 20.28C89.7394 20.28 89.8274 20.268 89.9074 20.244C89.9874 20.212 90.0594 20.176 90.1234 20.136L90.3034 20.616C90.1834 20.76 90.0274 20.884 89.8354 20.988C89.6514 21.092 89.4234 21.144 89.1514 21.144ZM93.3948 21.156C92.9228 21.156 92.4988 21.036 92.1228 20.796C91.7468 20.548 91.4508 20.192 91.2348 19.728C91.0188 19.264 90.9108 18.704 90.9108 18.048C90.9108 17.376 91.0228 16.804 91.2468 16.332C91.4708 15.86 91.7748 15.5 92.1588 15.252C92.5428 14.996 92.9708 14.868 93.4428 14.868C93.7548 14.868 94.0148 14.916 94.2228 15.012C94.4388 15.108 94.6228 15.24 94.7748 15.408C94.9268 15.576 95.0668 15.772 95.1948 15.996H95.7228L95.6868 16.872C95.3748 16.496 95.0828 16.216 94.8108 16.032C94.5468 15.84 94.2428 15.744 93.8988 15.744C93.6028 15.744 93.3348 15.824 93.0948 15.984C92.8548 16.136 92.6628 16.38 92.5188 16.716C92.3828 17.052 92.3148 17.48 92.3148 18C92.3148 18.52 92.3828 18.948 92.5188 19.284C92.6548 19.612 92.8428 19.856 93.0828 20.016C93.3228 20.168 93.5948 20.244 93.8988 20.244C94.2588 20.244 94.5708 20.144 94.8348 19.944C95.1068 19.744 95.3868 19.452 95.6748 19.068L95.7108 19.944H95.1948C95.0748 20.168 94.9388 20.372 94.7868 20.556C94.6348 20.74 94.4468 20.888 94.2228 21C93.9988 21.104 93.7228 21.156 93.3948 21.156ZM95.4708 21.084L95.3508 19.788H95.3148V16.224L95.3748 16.176L95.3268 13.38L94.3068 13.176V12.624L96.2388 12.24L96.6468 12.276L96.6348 13.776V20.208L97.5708 20.388V21L95.4708 21.084ZM101.209 21V20.292L102.817 20.232H103.381L105.109 20.292V21H101.209ZM102.349 21C102.357 20.592 102.361 20.184 102.361 19.776C102.361 19.368 102.361 18.956 102.361 18.54C102.361 18.124 102.361 17.712 102.361 17.304V16.68C102.361 16.272 102.361 15.864 102.361 15.456C102.361 15.04 102.361 14.628 102.361 14.22C102.361 13.812 102.357 13.404 102.349 12.996H103.825C103.825 13.404 103.821 13.812 103.813 14.22C103.813 14.628 103.813 15.036 103.813 15.444C103.813 15.852 103.813 16.264 103.813 16.68V17.484C103.813 17.844 103.813 18.216 103.813 18.6C103.813 18.984 103.813 19.376 103.813 19.776C103.821 20.176 103.825 20.584 103.825 21H102.349ZM103.189 17.904V17.208H104.413C104.941 17.208 105.365 17.14 105.685 17.004C106.005 16.86 106.237 16.652 106.381 16.38C106.525 16.108 106.597 15.784 106.597 15.408C106.597 14.84 106.433 14.416 106.105 14.136C105.777 13.848 105.245 13.704 104.509 13.704H103.309V12.996H104.641C105.401 12.996 106.033 13.092 106.537 13.284C107.049 13.476 107.433 13.752 107.689 14.112C107.945 14.464 108.073 14.888 108.073 15.384C108.073 15.864 107.945 16.296 107.689 16.68C107.433 17.056 107.037 17.356 106.501 17.58C105.973 17.796 105.289 17.904 104.449 17.904H103.189ZM101.209 13.704V12.996H102.865V13.764H102.685L101.209 13.704ZM108.826 21V20.292L110.302 20.232H110.494V21H108.826ZM109.966 21C109.974 20.592 109.978 20.184 109.978 19.776C109.978 19.36 109.978 18.944 109.978 18.528C109.978 18.112 109.978 17.688 109.978 17.256V16.68C109.978 16.272 109.978 15.864 109.978 15.456C109.978 15.048 109.978 14.64 109.978 14.232C109.978 13.816 109.974 13.404 109.966 12.996H111.442C111.442 13.404 111.438 13.812 111.43 14.22C111.43 14.628 111.43 15.036 111.43 15.444C111.43 15.852 111.43 16.264 111.43 16.68V17.256C111.43 17.68 111.43 18.104 111.43 18.528C111.43 18.944 111.43 19.356 111.43 19.764C111.438 20.172 111.442 20.584 111.442 21H109.966ZM110.914 21V20.292H112.378C113.018 20.292 113.558 20.16 113.998 19.896C114.438 19.624 114.77 19.24 114.994 18.744C115.226 18.248 115.342 17.652 115.342 16.956C115.342 15.9 115.094 15.096 114.598 14.544C114.102 13.984 113.41 13.704 112.522 13.704H110.914V12.996H112.654C113.502 12.996 114.242 13.144 114.874 13.44C115.514 13.728 116.01 14.164 116.362 14.748C116.714 15.332 116.89 16.056 116.89 16.92C116.89 17.784 116.706 18.52 116.338 19.128C115.978 19.736 115.466 20.2 114.802 20.52C114.138 20.84 113.358 21 112.462 21H110.914ZM108.826 13.704V12.996H110.494V13.764H110.302L108.826 13.704ZM117.546 21V20.292L119.13 20.232H119.742L121.458 20.292V21H117.546ZM118.686 21C118.694 20.592 118.698 20.184 118.698 19.776C118.698 19.368 118.698 18.956 118.698 18.54C118.698 18.124 118.698 17.712 118.698 17.304V16.68C118.698 16.272 118.698 15.864 118.698 15.456C118.698 15.048 118.698 14.64 118.698 14.232C118.698 13.816 118.694 13.404 118.686 12.996H120.162C120.162 13.404 120.158 13.812 120.15 14.22C120.15 14.628 120.15 15.036 120.15 15.444C120.15 15.852 120.15 16.264 120.15 16.68V17.256C120.15 17.68 120.15 18.104 120.15 18.528C120.15 18.944 120.15 19.356 120.15 19.764C120.158 20.172 120.162 20.584 120.162 21H118.686ZM119.43 17.304V16.596H122.358V17.304H119.43ZM122.07 18.372L121.83 17.124V16.776L122.07 15.552H122.766V18.372H122.07ZM117.546 13.704V12.996H119.31V13.764H119.13L117.546 13.704ZM123.33 15.144L122.91 13.284L123.438 13.728H119.418V12.996H124.038L124.122 15.144H123.33Z" fill="white"/>
<defs>
<clipPath id="clip0_1_134">
<rect width="18" height="18" fill="white" transform="translate(10 8)"/>
</clipPath>
</defs>
</svg>
